/* XPM */
static char *a34c8999d11846dfe2e0feac6ddbcc3fJLZtNiKG94r5w5Ln[] = {
/* columns rows colors chars-per-pixel */
"16 16 174 2 ",
"   c None",
".  c gray37",
"X  c #5D696C",
"o  c #5C6A6E",
"O  c #4F6C76",
"+  c #597077",
"@  c #606060",
"#  c #636666",
"$  c #626667",
"%  c #656565",
"&  c gray40",
"*  c #686868",
"=  c #3F768A",
"-  c #3A778D",
";  c #3B788B",
":  c #387D8E",
">  c #356E95",
",  c #0078A3",
"<  c #0079A3",
"1  c #057BA3",
"2  c #047CA0",
"3  c #007CA5",
"4  c #027CA4",
"5  c #027CA5",
"6  c #027DA5",
"7  c #077EA5",
"8  c #047FA6",
"9  c #067EA6",
"0  c #087EA6",
"q  c #247CAC",
"w  c #477686",
"e  c #40788C",
"r  c #16839C",
"t  c #39879C",
"y  c #0880A7",
"u  c #0B82A7",
"i  c #0D81A7",
"p  c #0D83A9",
"a  c #0E85AA",
"s  c #1183A9",
"d  c #1084A9",
"f  c #1085AA",
"g  c #1386AB",
"h  c #1587AA",
"j  c #1486AB",
"k  c #1B85AA",
"l  c #1B87AA",
"z  c #1F84A8",
"x  c #1788AB",
"c  c #1B89A9",
"v  c #1989AA",
"b  c #1888AB",
"n  c #1988AB",
"m  c #1A88AA",
"M  c #1A88AB",
"N  c #1A89AB",
"B  c #1C89AB",
"V  c #1C8AAA",
"C  c #1888AC",
"Z  c #1988AC",
"A  c #1989AC",
"S  c #1A89AC",
"D  c #1B8AAD",
"F  c #1C8AAD",
"G  c #1D8BAD",
"H  c #1E8BAC",
"J  c #2286A1",
"K  c #2286A5",
"L  c #2287A6",
"P  c #2387A6",
"I  c #2986A0",
"U  c #288DA7",
"Y  c #208BAB",
"T  c #268BA9",
"R  c #248CAB",
"E  c #228DAE",
"W  c #258DAF",
"Q  c #248EAF",
"!  c #268EAF",
"~  c #278FAF",
"^  c #2889AC",
"/  c #288FAF",
"(  c #3883A2",
")  c #338EAF",
"_  c #2790A8",
"`  c #2A90A9",
"'  c #2D92A9",
"]  c #2391B3",
"[  c #2991B0",
"{  c #2A90B0",
"}  c #2A91B1",
"|  c #3394B2",
" . c #3694B1",
".. c #3797B4",
"X. c #3C95B3",
"o. c #3C98B5",
"O. c #3F98B4",
"+. c #3E99B5",
"@. c #488799",
"#. c #59849F",
"$. c #628A92",
"%. c #4E92A8",
"&. c #5194A5",
"*. c #5C96A9",
"=. c #4198B5",
"-. c #469DB7",
";. c #479DB8",
":. c #4EA0B9",
">. c #4DA2BA",
",. c #4EA2BA",
"<. c #53A1BA",
"1. c #54A1B9",
"2. c #54A4BB",
"3. c #54A4BC",
"4. c #56A5BC",
"5. c #59A7BD",
"6. c #5BA7BC",
"7. c #5AA7BD",
"8. c #5DA5BC",
"9. c #59A8BD",
"0. c #60AABF",
"q. c #61AABF",
"w. c #64ABBF",
"e. c #6AAFC1",
"r. c #6BAFC1",
"t. c #6DAEC0",
"y. c #6BB1C3",
"u. c #6DB3C4",
"i. c #73B1C2",
"p. c #72B3C3",
"a. c #77B4C4",
"s. c #78B5C4",
"d. c #78B6C5",
"f. c #78B5C6",
"g. c #7DB8C6",
"h. c #7CB8C7",
"j. c #7EB8C6",
"k. c #7FB9C7",
"l. c #80B9C7",
"z. c #82BAC7",
"x. c #82BBC8",
"c. c #86BBC8",
"v. c #85BDC9",
"b. c #88BDC9",
"n. c #8ABCCA",
"m. c #88C0CB",
"M. c #8DC0CB",
"N. c #8EC0CC",
"B. c #8EC3CD",
"V. c #93C0CB",
"C. c #91C1CC",
"Z. c #95C4CD",
"A. c #98C5CE",
"S. c #9FC8CF",
"D. c #9BC9D2",
"F. c #9EC9D1",
"G. c #A2C9D1",
"H. c #A3CAD0",
"J. c #A2CBD1",
"K. c #A4CAD0",
"L. c #A7CBD2",
"P. c #A7CFD5",
"I. c #ACCCD2",
"U. c #ADD0D6",
"Y. c #ADD3D7",
"T. c #B6D3D6",
"R. c #B3D4D6",
"E. c #BBD4D7",
"W. c #BFD8D8",
"Q. c #C3D9D9",
"!. c #C2DDDE",
"~. c #C9DDDC",
"^. c #D4E1DD",
"/. c #E1EBE4",
/* pixels */
"            . & & @             ",
"        X *.+.} W  .%.O         ",
"      $.} 0 p 6 s c A A @.      ",
"    #.c 7 5.j.4.E d C C c (     ",
"  + _ g +.e.J.j.x.G a C A V e   ",
"  &.c C x.k j.u.~.T.6.y A A U   ",
"* Q A | ) n.o.K.N.B.b.+.6 A G w ",
"$ c C ;.8.5.w.p.<.U.Z.^.3.g A = ",
"o k d t.n.3 v.x.>.J.v.Y.y.G A - ",
"$ G p n.8.! K.=.I.z U.e.Q.>.x - ",
"  R G c.^ J.k.b.j.i.a.Z.H...V   ",
"  : E !.n.S.f.t.a./.a.k.-.} J   ",
"    r E.5.D.Q.U.M.j.W 0 2.' t   ",
"    > 2 3 k.;.5.+.< a h Y q     ",
"        P 7 3 7 u c A l I       ",
"          U / L L ] T           "
};
