/* XPM */
static char *_41f121bb8dc455cfa0481326eeec255xtL8vSeya7mUqLJd[] = {
/* columns rows colors chars-per-pixel */
"64 64 162 2 ",
"   c None",
".  c #006E9D",
"X  c #00729F",
"o  c #0076A1",
"O  c #037CA5",
"+  c #097EA6",
"@  c #137FA7",
"#  c #0780A7",
"$  c #0A81A7",
"%  c #0D83A9",
"&  c #1281A7",
"*  c #1B86A6",
"=  c #1788A6",
"-  c #1C89A5",
";  c #1386AA",
":  c #1A87AB",
">  c #1789AC",
",  c #1989AC",
"<  c #1384B2",
"1  c #178AB1",
"2  c #148CB9",
"3  c #1591B3",
"4  c #1897B5",
"5  c #228CAE",
"6  c #2A8FAF",
"7  c #2790AF",
"8  c #2B90AF",
"9  c #298FB0",
"0  c #2790B0",
"q  c #2C91B1",
"w  c #3495B3",
"e  c #3A97B4",
"r  c #3C99B5",
"t  c #4096B4",
"y  c #429BB6",
"u  c #4A9EB7",
"i  c #469EB8",
"p  c #4B9FB8",
"a  c #4DA1BA",
"s  c #53A4BB",
"d  c #5AA6BC",
"f  c #5DAABF",
"g  c #61A9BE",
"h  c #68AEBF",
"j  c #1187C2",
"k  c #108BC1",
"l  c #65ADC0",
"z  c #6AAEC1",
"x  c #71AFC1",
"c  c #6DB1C3",
"v  c #74B4C4",
"b  c #7AB6C5",
"n  c #77B9C7",
"m  c #7DB8C7",
"M  c #7DB9C8",
"N  c #82B5C4",
"B  c #88B7C6",
"V  c #81B9C7",
"C  c #84BCC9",
"Z  c #8BBECA",
"A  c #8EC1CB",
"S  c #93C3CD",
"D  c #9AC6CE",
"F  c #9CC8CF",
"G  c #9AC7D0",
"H  c #94C8D1",
"J  c #9DC9D1",
"K  c #A0C8CF",
"L  c #A5CCD2",
"P  c #ABCDD2",
"I  c #B1CFD3",
"U  c #AED1D5",
"Y  c #B3D2D5",
"T  c #BBD4D6",
"R  c #B6D6D8",
"E  c #B9D7D9",
"W  c #BDD9D9",
"Q  c #C1D7D7",
"!  c #C1D7D8",
"~  c #C4DBDA",
"^  c #CBDEDD",
"/  c #C7E0DD",
"(  c #CDE1DE",
")  c #D4E2DF",
"_  c #DCE4DE",
"`  c #CBE0E0",
"'  c #D4E4E1",
"]  c #DBE6E1",
"[  c #D7E9E3",
"{  c #DCE9E3",
"}  c #E0E7E1",
"|  c #E3ECE5",
" . c #E4EFE7",
".. c #E4EBE4",
"X. c #ECEAE2",
"o. c #ECEDE4",
"O. c #EAEDE4",
"+. c #E2EDE8",
"@. c #E4EEE9",
"#. c #E5EEE9",
"$. c #E8EFE8",
"%. c #F1EEE5",
"&. c #EBF1E5",
"*. c #EDF0E7",
"=. c #ECF2E9",
"-. c #ECF1EA",
";. c #EFF3ED",
":. c #ECF2EA",
">. c #F3F0E6",
",. c #F5F1E6",
"<. c #F3F1E6",
"1. c #F9F1E5",
"2. c #F9F2E7",
"3. c #FCF3E7",
"4. c #F5F1E8",
"5. c #F7F4E9",
"6. c #F4F5EC",
"7. c #F4F4EA",
"8. c #FFF5E9",
"9. c #FFF5E8",
"0. c #FFF7E9",
"q. c #FDF6E9",
"w. c #F7F9ED",
"e. c #FFF8EB",
"r. c #FFF9EB",
"t. c #F9F9EC",
"y. c #FBF9EF",
"u. c #FCF8ED",
"i. c #FFF9EC",
"p. c #FCFBED",
"a. c #FFFBEC",
"s. c #FDF9EF",
"d. c #FFFBEE",
"f. c #FFFCED",
"g. c #FFFCEE",
"h. c #FFFFEE",
"j. c #FEFBED",
"k. c #F3F6F0",
"l. c #F4F8F2",
"z. c #F8F8F0",
"x. c #FDFBF0",
"c. c #FDFEF1",
"v. c ivory",
"b. c #FFFFF1",
"n. c #FFFDF2",
"m. c #FFFEF2",
"M. c #FFFFF2",
"N. c #FEFEF3",
"B. c #FFFEF3",
"V. c #FFFFF3",
"C. c #FCFDF5",
"Z. c #FFFDF5",
"A. c #FFFFF4",
"S. c #FFFFF5",
"D. c #FFFEF6",
"F. c #FFFFF6",
"G. c #FFFFF3",
"H. c #FFFFF8",
"J. c #FFFFF9",
"K. c #FFFFFA",
"L. c #FFFFFC",
"P. c #FFFFF9",
/* pixels */
"                                                                                                                                ",
"                                                          > , , , , ,                                                           ",
"                                                , , , , , , , , , , , , , , , >                                                 ",
"                                          , , , , , , , , , , , , , , , , , , , , , ,                                           ",
"                                    , , , : , , , , , , , , , , , , , , , , , , , , , , ,                                       ",
"                                1 , , , , > , , , , , , , , , , , , , , , , , , , , , , , , >                                   ",
"                              , : , , , , , , , , , , , , , , , , , , , , , , , , , , , , , : ,                                 ",
"                          > : , , , , , , , , , , , , , , , , , , , , , , , , , , , , , , , , , , ,                             ",
"                        , , , , , , , , , , > : , , , , , , , , , , , , , , , , , , , , , , , , , - 1                           ",
"                      > , , , , , , , , , , > + O $ , > , , , , , , , , > , , , , , , , , , > , , , , ,                         ",
"                    , , , , , , , , , , , % O q a 5 + , , , , , , , , , , , , , , , , , , , , , , , , , -                       ",
"                  1 , , , , , , , , , : $ ; L s.N.<.a $ % o X O , , , , , , , , , , , , , , , , , , , , , -                     ",
"                2 - , , , , , , , , , ; ; ) K...] N.@.; , v Z e % , , , , , , , , , , , , , , , , , , , , , ,                   ",
"                - , , , , , , , , , > % ^ z.h ; % U s.S ..K.K.&.0 , , , , , , , , , , , , , , , , , , , , , : ,                 ",
"              - , , , , , , , , , , O Y z.e O % % o r.n.u.Y ] n.S % , , , , , , , , , > , , , , > , , , , , , - <               ",
"            > , , , , , , , , , , $ x N.p O , , $ 8 0.,.y O ; u.h.+ > > , , , , , , , , , , , , , , , , , , , , ,               ",
"            , , , , , , , , , , , 0 l.Z O , , ; 6 +.s.X.O ; # B n.5 O O ; , , , , , , , , , , , , , , , , , , , , >             ",
"          , , , , , , , , , , , + U | O > > ; + ` x.n h.; , : r 3.Y W S # o o o % , , , , , , , , , , , , , , , , ,             ",
"        , , , , , , , , , , , ; 0 N.i ; , , O S N.d 5 n.> > O s 1.N.K.n.S c S v > ; , , , , , , , , , , , , , , , , 4           ",
"        , , , , , , , , , , , O W ` ; , , ; a N.S # e n., + i u.e.! b 3.h.N.L.n.W ; , , , , , , , , , , , , , , , , :           ",
"        , , , , , , , , , , , w n.s ; , , $ +.] O > e n.% w 6.=.1.Z b n.r.) ~ t.s.f , , , , , , , , , , , , , , , , , ,         ",
"      , , , , , , , , , , , > S ] O , , O D n.q ; : e c.+ { 6.t ] 4.N.! r.b o b h.L , , , , , , , , , , , , , , , , , ,         ",
"      , , , , , , , , , , , ; h.i ; , ; w n.Z % , > y 0.J N.y + _ u.G + o.Y O O r.) , , , , , , 1 , , , , , , , , , , ,         ",
"      , , , , , , , , , , $ v  .; , , ; R =.; , > > d 0.n.C O d 8.Y O ; ~ ) # O ! ,., # $ > , , , , , , , , , , , , , , 3       ",
"    1 , , , , , , , , , , # =.M , , ; e n.l # , , ; M h.{ # $ 7.s.v $ , P X.O % Z r.O : : + > > , , , , , , , , , , , , ,       ",
"    : , , , , , , , , , ; s h.7 > , O ^ { O , , , # P n.e o P n.0.f ; , L %.# ; v s.D } X.C ; , , , , , , , , > , , , , ,       ",
"    , , , , , , , , , , ; U W # , ; e n.f > , , > O <.Y + e y.T 8.r > , F %.O O S 0.L.N.N.n.d O O > , , , , , , , , , , ,       ",
"    , , , , > , , , , , 7 =.a ; , % R | , , , , $ d h.a ; L t.t h.; , , L _ o m s.0.P z Y n.Y q e O , , , , , , > , , , , ,     ",
"    , , , , , , , , , , y s.# , , w t.M $ - , , ; ^ o.0 5 n.l s h.# , , I P N K.3.%.O o X X.u.n.s.S # > , , , , , , , , , ,     ",
"  , , , , , , , , , > % G P ; , ; n n.# > , , , e 5.) X Y  .$ S ] % , , ^ _ N.! L } ; % & } r.} 6.n.w > , , , , , , , , , ,     ",
"  , , , , , , , , , , O 7.f , , O 7.S $ , , , ; Z h.n ; h.M % W L ; , > %.x.^ + T ~ : ; ' n.h.O l 0.n > , , , , , , , , , ,     ",
"  , , , , , , , , , > 9 r.e , ; u n.w , , , , # *.n.; C u.6 # u.c > , : n.=.: o %.F O R h.I h.O O 3.C ; , , , , , , , , , ,     ",
"  , , , , , , , , , % M .., , # / ' : , , , ; y n.~ # ' E O : h.i , + v n.i + % h.d V N.f B 7.# + 1.v > ; , , , , , , , , ,     ",
"  > , , , , , , , > % ~ Y # > w t.C ; , , , # R h.a w n.w % g <.w > % o.E ; > a 8.v x.G o ~ ! % q r.w O O ; , , , , , , , ,     ",
"    > , , , , , , , 5 O.c ; , M h., > , , > : 7.] ; A &.# # E ( > > v e.v > % G %.{ @.% O s.m ; z 7.X z T w , , , , > , , ,     ",
"    , , , , , , , , r 0.0 > ; { E O , , , > a 0.Z O 7.Z , ; *.S ; ; ' 0.w , , ( 0.n.e O r n.i , ~ v C N.n.a , , , , , , , -     ",
"    , , , , , , , , s h.O > e N.w : , , : + S r.# e h.a , i s.r % d h.| O , e *.0.J + O R { 5 5 0.Z K.^ 3.a , , , , , , , 1     ",
"    , , , , , , , , c { # O ~ ] : , , , + b s.U o S o.5 , C t.O O | h.v $ > v s.=.5 , w w.Z o D 0.C.J Z | 6 , , , , , , >       ",
"    , , , , , , , > D P % 5 h.C , , , , # h.n.s ; ` ^ # ; { A O s n.a.; : O { h.b # # L h.% ; h.n.^ ; O.J % , , , , , , ,       ",
"    > , , , , > , ; T Z $ m u.e > , , % c r.0., w %.M % 0 N.q ; ~ 0.L ; > w n...O $ e N.C o F s.| : x n.5 ; , , , , , , ,       ",
"      : , , , , , ; ) l , ~ ] O , , ; : $.8.^ 5 i h.e O Y ` , e 7.u.a , + W s.d % # | | ; e 7.w.u O w.J O , , , , , , , >       ",
"      , , , , , , ; o.s 8 s.v % : > + ^ { 5.G > v h.O : h.n % A r.[ % , w 7.) > + S n.d o ^ n.V O d h.6 , , , , , , , ,         ",
"      3 , , , , , % 0.y d n.; , : O K N.z e.z ; L ] O C u.: + t.h.d $ ; Z n.l o l N.L . V N.W O O / W , , , , , , , , ,         ",
"        , , , , > ; r.e J ..% , O b N.Z l 5.e % ' P ; -.S o l n.{ O , ; e.5.. p n.' + y w...5 , O u.! 5 , , , , , , , 1         ",
"        , , , , , % 0.r } L ; O v n.| O L >.+ % r.h v h.$ # ) s.p ; o Y n.g p z.@.6 + ' n.u # , # ....q , , , , , , ,           ",
"          , , , , ; ..l r.N O C h.w.r , ) P O % n.g s.C % w 5.R % ; d h.8.b N.5.w O F K.v O , , $ A 0.w , , , , , , >           ",
"          , , , , ; R ) r.P F n.n.V $ w s.f % 0 h...-., $ ! h.q % : #.h.1.K.@.r O + | S + , , , % v 0.q , , , , , ,             ",
"            , , , > c n.3.r.N.n.D O > y n., 1 5 h.h.a X Y n.O.X O ! 6./ N.] 6 + : : q $ > > , , % n ,.q , , , , , >             ",
"            > , , , 5 ) n.n.<.n O > ; v s.$ + r n._ , ~ K.r.Z X S N.c e Z > + , , , # ; , , , , % m X.0 , , , , ,               ",
"              - , , ; , b m 8 O > , % J %.o q O.n.,.h.K.D s.v C N.Y + + o % , , , , , , , , , , $ H [ 5 , , , -                 ",
"                : : , % o X + > , > % G 0.z -.z.P h.<.v + N.3.N.( % ; , , , , , , , , , , , , , % n m , , , : k                 ",
"                  - , , , , , , , : > n n.K.6.s O i 6 O , O.n.Y ; ; , , , , , , , , , , , , , , , % # , , - >                   ",
"                  j , , , , , , , , , q ] ^ r O ; O # , , w d + ; , , , , , , , , , , , , , , , : ; - , , 1                     ",
"                    = : , , , , , , , ; ; O + , , , , , , + O ; : : , , , , , , , , , , , , , , , , : : ,                       ",
"                      3 : , , , , , , : ; ; , , , , , , , , , , , , , , , , , , , , , , , , , , , , : :                         ",
"                          , , , , , , : > : , , , , , , , , , , , , , , , , , , , , , , , , , , : : 3                           ",
"                            , , , , , , , , , , , , , , , , , , , , , , , , , , , , , , , , , , 3                               ",
"                              > : , , , , , , , , , , , , , , , , , , , , , , , , , , , , , , ,                                 ",
"                                  , , , , , , , , , , , , , , , , , , , , , : , , , , , , ,                                     ",
"                                      , , , , , , , , , , , , , > , , , , , , , , , , ,                                         ",
"                                          > , , , : : , , , , , , , , , > , , , : ,                                             ",
"                                                  3 , , , , , , , , , , , 1                                                     ",
"                                                                                                                                ",
"                                                                                                                                "
};
