/* XPM */
static char *_9ac6bb79b6f4d99ce9bf34af9dac8cb28UD5S6U4j9drrsL[] = {
/* columns rows colors chars-per-pixel */
"32 32 123 2 ",
"   c None",
".  c #005C93",
"X  c #006396",
"o  c #006698",
"O  c #006C9B",
"+  c #00729F",
"@  c #087E9F",
"#  c #0075A1",
"$  c #027CA4",
"%  c #0A7EA6",
"&  c #1E8A9E",
"*  c #0680A7",
"=  c #0A81A5",
"-  c #0D84A9",
";  c #1480A7",
":  c #1A86A4",
">  c #1C8AA4",
",  c #1386AA",
"<  c #1B86AA",
"1  c #168AAC",
"2  c #1989AC",
"3  c #158EB2",
"4  c #188BB2",
"5  c #1188BE",
"6  c #1691B3",
"7  c #238DAE",
"8  c #2B8AAC",
"9  c #2790B0",
"0  c #2C92B1",
"q  c #3494B2",
"w  c #3D97B4",
"e  c #3C9AB5",
"r  c #429CB7",
"t  c #469FB8",
"y  c #499FB8",
"u  c #4CA1B9",
"i  c #54A4BB",
"p  c #59A6BC",
"a  c #5BA8BD",
"s  c #63ABBF",
"d  c #6BADBF",
"f  c #1489C0",
"g  c #65ACC0",
"h  c #6AAFC1",
"j  c #6DB2C3",
"k  c #73B3C3",
"l  c #7AB6C5",
"z  c #7DB8C7",
"x  c #7DBBC9",
"c  c #81BAC7",
"v  c #84BCC9",
"b  c #8BBEC9",
"n  c #8DC0CB",
"m  c #93C2CC",
"M  c #9CC6CE",
"N  c #9AC9D3",
"B  c #A0C8CF",
"V  c #A4CAD1",
"C  c #ABCDD2",
"Z  c #AED0D4",
"A  c #B4D2D5",
"S  c #BBD4D6",
"D  c #B4D6DB",
"F  c #B7D9DA",
"G  c #B8D8D9",
"H  c #C0D7D7",
"J  c #C3D9D8",
"K  c #C2D9D9",
"L  c #C7DAD9",
"P  c #C7DBDA",
"I  c #C7DDDB",
"U  c #C6DFDE",
"Y  c #C5D9D9",
"T  c #CADCDA",
"R  c #CDDDDB",
"E  c #CCDDDB",
"W  c #D0DEDC",
"Q  c #D2DFDC",
"!  c #D2DFDD",
"~  c #CEE1DF",
"^  c #D7E0DC",
"/  c #D8E2DE",
"(  c #DCE4DF",
")  c #DDE4DF",
"_  c #DAE4DE",
"`  c #D2E4E0",
"'  c #DFE6E0",
"]  c #DAE6E1",
"[  c #D6E8E4",
"{  c #DDEBE6",
"}  c #E1E7E1",
"|  c #E0E6E0",
" . c #E4EAE3",
".. c #E5EAE3",
"X. c #E3EAE3",
"o. c #ECEBE3",
"O. c #E9EDE4",
"+. c #E9EBE3",
"@. c #E1EFE8",
"#. c #E6EFEA",
"$. c #F3EFE5",
"%. c #EBF0E7",
"&. c #EFF1E8",
"*. c #EEF2E8",
"=. c #F2F1E7",
"-. c #F5F2E7",
";. c #F2F4E9",
":. c #F3F5E9",
">. c #F1F2E9",
",. c #FEF4E8",
"<. c #FEF5E8",
"1. c #FEF6E9",
"2. c #F7F8EB",
"3. c #FBF9EC",
"4. c #FFFEEE",
"5. c #FFFFEE",
"6. c #FFFFEF",
"7. c #FEFBED",
"8. c #FFFFF3",
"9. c #FFFFF7",
"0. c #FFFFF2",
"q. c #FFFFFB",
"w. c #FFFFF9",
/* pixels */
"                                                                ",
"                        1 2 1 2 2 2 2 1                         ",
"                  < 2 2 2 2 2 2 2 2 2 2 < 2 4                   ",
"              1 2 2 2 2 2 2 2 2 2 2 2 2 1 2 < 2                 ",
"            2 2 2 7 1 $ # 2 2 2 2 2 2 2 2 2 2 2 2 1             ",
"          & < 2 2 * $ v v $ # # 1 2 2 2 2 1 2 2 2 2 >           ",
"        < 2 2 2 * * S ~ *.l n m $ 1 2 2 2 2 2 2 2 2 > f         ",
"      2 > 2 2 1 # Z Z . q 8.S 4.g o 1 2 2 2 2 1 2 2 2 > 1       ",
"    1 < 2 2 2 # v K O # L -.O u ..w # # * 2 2 2 2 2 2 2 <       ",
"    < 2 2 2 - 7 R 0 o A Z m - s 2.O.F F e $ 2 2 2 2 2 2 < 6     ",
"  6 < 2 2 2 + m m . j _ # k M } T *.2.] } $ , 1 2 2 2 2 2 <     ",
"  2 2 2 2 - 7 S 7 ; } e O T $.r ) x b , _ q O 1 1 2 2 2 2 < 3   ",
"  2 2 2 2 # v M . N C O , ,.u V Q O S , b ~ j $ $ 2 2 2 2 2 2   ",
"  2 2 2 2 $ V e ; W 0 + g m e 4.v # n t ` @.2.n ; * 2 2 2 2 2   ",
"2 2 2 1 = u V O m C + # K v k S k # S ,.;.# p w. .e $ 2 2 2 2   ",
"2 2 2 2 # v v + L t # 0 Q M l j k $ 4.v d p =.M m V + 2 2 2 2   ",
"2 2 2 2 $ M e i S # # V S b p b 9 l V $ A S S h u j # 2 2 2 2   ",
"1 2 2 1 2 V $ A k # # S M b q B * o.0 q q.e h l i I S 1 , 2 2   ",
"  2 2 * y b e L , # h C k k i k s ,.o E ' # C r  .,.E * , 2 2   ",
"  2 2 $ g g c B O $ 7.v l u b y  .c % 4.= b k m ..b l # 2 < 2   ",
"  1 2 $ k z M r o m 8.i l h b a 0.O N m 7 L i ,.t m 4 , 2 < 6   ",
"  3 < # h T v X b  .b g z V i H M # ^ p _ i +.i i S # 2 2 <     ",
"    2 $ a 7.k k ,.g l r %.z q } O S 7.' u B C o s Y * 2 < 3     ",
"    1 % 2 7.8.0.8 g h 7 3.y X.y r 0.{ u + i * $ y S , , >       ",
"      2 = i N 0 o V v V 0.T &.D W 0 = $ 2 $ , $ a B $ >         ",
"        2 @ + * # x 8.b p q l #.0 # , 4 1 2 2 1 7 9 : 5         ",
"          & 2 2 , 9 u $ # $ 2 % $ 2 2 2 2 2 2 2 , ; 1           ",
"            2 2 2 - $ 1 2 2 , , 2 2 2 2 2 2 2 2 <               ",
"                2 < 2 2 2 2 2 2 2 2 2 2 2 2 2 2                 ",
"                  6 2 2 2 2 2 2 2 2 2 2 2 1                     ",
"                          2 2 2 2 2 1                           ",
"                                                                "
};
